<svg width="100" height="100" viewBox="0 0 24 24" fill="none" xmlns="http://www.w3.org/2000/svg">
<path d="M12 22C17.5228 22 22 17.5228 22 12C22 6.47715 17.5228 2 12 2C6.47715 2 2 6.47715 2 12C2 17.5228 6.47715 22 12 22Z" stroke="none"/>
<path d="M12 18C14.2091 18 16 16.2091 16 14C16 11.7909 14.2091 10 12 10C9.79086 10 8 11.7909 8 14C8 16.2091 9.79086 18 12 18Z" fill="#E63946"/>
<path fill-rule="evenodd" clip-rule="evenodd" d="M12 2C10.8 4.5 9 6.5 7.5 8.5C5.5 11 4.5 13.5 4.5 16C4.5 20.1 7.9 23.5 12 23.5C16.1 23.5 19.5 20.1 19.5 16C19.5 13.5 18.5 11 16.5 8.5C15 6.5 13.2 4.5 12 2ZM12 21.5C15 21.5 17.5 19 17.5 16C17.5 14.2 16.7 12.5 15.2 10.5C14.2 9.2 13.2 7.8 12.5 6.2C11.8 7.8 10.8 9.2 9.8 10.5C8.3 12.5 7.5 14.2 7.5 16C7.5 19 10 21.5 12 21.5Z" fill="#E63946"/>
<path d="M12 18C13.1046 18 14 17.1046 14 16C14 14.8954 13.1046 14 12 14C10.8954 14 10 14.8954 10 16C10 17.1046 10.8954 18 12 18Z" fill="#E63946" fill-opacity="0.5"/>
</svg>
